<svg fill="none" height="48" viewBox="0 0 105 48" width="105" xmlns="http://www.w3.org/2000/svg" xmlns:xlink="http://www.w3.org/1999/xlink"><clipPath id="a"><path d="m0 0h104.805v48h-104.805z"></path></clipPath><g clip-path="url(#a)"><path d="m30.3 26.6547c0 6.675-5.79 9-15.765 9h-14.535v-.405l3.21-3.75v-25.50001l-3.21-3.915v-.405h16.5c8.31 0 12.285 3.48 12.285 8.04 0 3.79501-2.67 7.03501-8.25 8.23501 6.465.93 9.765 4.29 9.765 8.7zm-19.305-23.65501v14.53501h3.18c4.725 0 6.615-3 6.615-7.32 0-4.32001-1.65-7.21501-6.465-7.21501zm3.465 15.72001h-3.465v15.78h3.165c5.52 0 7.815-3 7.815-7.95 0-4.755-2.175-7.83-7.515-7.83z"></path><path d="m46.2752 29.4894-3 7.125c-3.615 8.505-6.825 10.935-8.22 11.385l-3.165-5.385.18-.48c1.5-.33 6.765 0 8.85-2.565l1.08-2.58-9.225-21.885-2.535-3v-.33h13.08v.375l-2.505 3z"></path><path d="m64.6048 35.6852v-.36l2.76-3v-13.89c.0615-.5562-.0007-1.1192-.1822-1.6485s-.4778-1.012-.8677-1.4134c-.3899-.4013-.8638-.7115-1.3876-.9083-.5239-.1968-1.0848-.2753-1.6425-.2298-.8572-.0086-1.7074.1542-2.5008.4788-.7933.3245-1.5138.8043-2.1192 1.4112v16.23l2.775 3v.36h-12.93v-.36l2.91-3v-16.5l-2.655-3.705v-.375h9.645l.255.375v2.85c1.1002-1.1746 2.4254-2.1159 3.8968-2.7679 1.4715-.6519 3.059-1.0012 4.6682-1.0271.9501-.0662 1.9037.0647 2.801.3844.8972.3196 1.7187.8212 2.413 1.4733.6943.652 1.2464 1.4405 1.6217 2.3159s.5657 1.8189.5593 2.7714v14.25l2.88 3v.36z"></path><path d="m92.8499 2.1 9.1501-2.1.315.255v31.245l2.475 4.5v.285h-9.5551v-3.765c-1.0189 1.1522-2.2668 2.0793-3.664 2.7224s-2.9131.988-4.451 1.0126c-5.805 0-9.45-4.8-9.45-11.565 0-7.89 4.995-13.5 12.915-13.5 1.588-.0219 3.1491.41 4.5 1.245v-7.725l-2.235-2.235zm-7.5 20.85c0 6.525 2.1 9.99 5.82 9.99 1.4518-.0138 2.8509-.5458 3.945-1.5v-15.225c-.465-2.715-1.86-4.02-3.75-4.02-3.795 0-6.06 3.945-6.06 10.755z"></path></g></svg>